<?xml version="1.0" standalone="no"?>
<!DOCTYPE svg PUBLIC "-//W3C//DTD SVG 20010904//EN"
 "http://www.w3.org/TR/2001/REC-SVG-20010904/DTD/svg10.dtd">
<svg version="1.0" xmlns="http://www.w3.org/2000/svg"
 width="256.000000pt" height="256.000000pt" viewBox="0 0 256.000000 256.000000"
 preserveAspectRatio="xMidYMid meet">
<metadata>
Created by potrace 1.16, written by Peter Selinger 2001-2019
</metadata>
<g transform="translate(0.000000,256.000000) scale(0.100000,-0.100000)"
fill="#000000" stroke="none">
<path d="M2068 2105 c36 -69 63 -136 72 -178 6 -28 10 -163 10 -310 l-1 -260
-20 32 c-14 23 -25 31 -37 27 -13 -5 -25 6 -47 39 -18 29 -38 48 -54 51 -14 4
-35 12 -47 20 -12 7 -46 20 -77 29 -38 11 -58 22 -62 36 -7 22 -33 25 -41 4
-5 -11 -13 -10 -44 10 l-39 25 32 -52 32 -51 0 -171 c0 -118 -4 -183 -14 -209
-19 -55 -68 -106 -126 -133 -48 -23 -58 -24 -320 -24 -150 0 -286 5 -306 10
-52 15 -99 49 -134 99 l-30 43 -7 225 c-3 125 -11 230 -16 235 -20 20 -32 -4
-32 -64 0 -50 -5 -67 -25 -94 -23 -30 -25 -42 -25 -128 0 -110 33 -233 75
-279 14 -14 25 -31 25 -37 0 -5 15 -32 33 -58 29 -41 32 -51 23 -75 -8 -22 -7
-30 4 -37 10 -6 -75 -10 -230 -12 -181 -1 -116 -4 250 -10 456 -7 1298 -4
1307 6 3 2 4 240 3 528 -1 573 -3 599 -58 685 -34 53 -94 116 -74 78z"/>
<path d="M1001 1528 c-65 -44 -76 -68 -79 -182 -4 -122 13 -169 75 -207 37
-24 43 -24 283 -24 241 0 246 0 284 24 55 35 76 86 76 191 0 101 -20 155 -71
191 -33 24 -38 24 -284 27 -247 3 -251 3 -284 -20z"/>
<path d="M1380 602 l0 -99 48 -1 c60 -1 82 18 82 69 0 48 -23 73 -62 65 -26
-5 -28 -4 -28 29 0 28 -4 35 -20 35 -19 0 -20 -7 -20 -98z"/>
<path d="M1550 620 c-24 -24 -26 -67 -4 -98 20 -29 76 -30 104 -2 43 43 11
120 -50 120 -17 0 -39 -9 -50 -20z"/>
<path d="M2163 558 c-36 -74 -89 -125 -171 -165 l-76 -38 -580 -5 c-459 -4
-510 -6 -243 -8 216 -1 337 -6 337 -12 0 -6 35 -10 85 -10 56 0 85 4 85 11 0
7 11 9 33 5 63 -14 263 -27 322 -22 141 12 210 83 231 240 4 25 5 46 2 46 -2
0 -13 -19 -25 -42z"/>
</g>
</svg>
